<?xml version="1.0" encoding="UTF-8"?>
<svg id="Calque_1" data-name="Calque 1" xmlns="http://www.w3.org/2000/svg" viewBox="0 0 1700 1070">
  <defs>
    <style>
      .cls-1 {
        fill: #6d69ff;
      }

      .cls-2 {
        fill: #28273d;
      }
    </style>
  </defs>
  <g>
    <path class="cls-2" d="M660.26,485.42h41.55c17.86,0,31.26,12.99,31.26,30.45s-13.4,30.31-31.26,30.31h-25.44v32.61h-16.1v-93.38ZM676.37,500.57v30.45h25.17c8.53,0,15.02-6.5,15.02-15.16s-6.5-15.29-15.02-15.29h-25.17Z"/>
    <path class="cls-2" d="M741.32,509.77h15.16v11.5c5.41-7.85,13.4-12.59,23.14-12.59h2.44v15.56h-2.44c-14.62,0-23.14,8.26-23.14,20.98v33.56h-15.16v-69.02Z"/>
    <path class="cls-2" d="M782.06,544.28c0-20.57,15.83-36.13,36.81-36.13s36.95,15.56,36.95,36.27c0,1.89-.14,3.92-.41,5.68h-57.11c2.3,10.02,10.42,16.65,21.25,16.65,7.98,0,14.89-3.52,18.4-8.8h16.78c-5.55,13.4-19.08,22.47-35.46,22.47-21.38,0-37.22-15.56-37.22-36.13ZM798.43,537.65h41.14c-2.3-9.47-10.42-15.83-20.71-15.83s-18,6.23-20.44,15.83Z"/>
    <path class="cls-2" d="M865.02,509.77h15.16v9.88c5.82-7.17,14.21-11.5,24.36-11.5,19.35,0,33.97,15.56,33.97,36.13s-14.62,36.13-33.97,36.13c-10.15,0-18.54-4.33-24.36-11.5v35.59h-15.16v-94.73ZM922.8,544.28c0-12.18-9.07-21.52-21.25-21.52s-21.38,9.34-21.38,21.52,9.2,21.52,21.38,21.52,21.25-9.34,21.25-21.52Z"/>
    <path class="cls-2" d="M944.59,559.71c0-12.31,9.34-20.98,25.31-20.98h21.52v-4.6c0-7.58-5.95-12.45-14.89-12.45-8.26,0-14.21,4.33-14.21,9.61h-15.16c0-13.4,11.91-23.14,29.37-23.14s30.04,10.28,30.04,25.85v44.8h-15.16v-6.36c-4.74,5.01-12.31,7.98-21.65,7.98-15.16,0-25.17-7.98-25.17-20.71ZM991.41,554.71v-3.93h-19.08c-7.85,0-12.18,3.11-12.18,7.98,0,5.28,5.28,8.93,14.21,8.93,10.02,0,17.05-4.74,17.05-12.99Z"/>
    <path class="cls-2" d="M1018.07,489.07c0-5.55,4.2-9.61,9.61-9.61s9.74,4.06,9.74,9.61-4.19,9.61-9.74,9.61-9.61-4.19-9.61-9.61ZM1020.1,509.77h15.16v69.02h-15.16v-69.02Z"/>
    <path class="cls-2" d="M1045.54,544.28c0-20.57,14.48-36.13,33.97-36.13,10.15,0,18.54,4.33,24.22,11.5v-38.3h15.16v97.44h-15.16v-9.88c-5.68,7.17-14.07,11.5-24.22,11.5-19.49,0-33.97-15.56-33.97-36.13ZM1103.74,544.28c0-12.18-9.07-21.52-21.25-21.52s-21.38,9.34-21.38,21.52,9.07,21.52,21.38,21.52,21.25-9.34,21.25-21.52Z"/>
    <path class="cls-2" d="M1133.37,481.35h15.16v97.44h-15.16v-97.44Z"/>
    <path class="cls-2" d="M1184.12,578.25l-29.1-68.48h17.32l20.16,50.34,20.03-50.34h16.92l-40.19,94.73h-16.37l11.23-26.25Z"/>
  </g>
  <path class="cls-1" d="M501.01,552.66c-2.29,3.95.57,8.89,5.14,8.89h28.18l-16.86,29.24h-12.24c-12.37,0-23.82-6.59-30.03-17.33-3.11-5.37-4.65-11.35-4.65-17.34s1.54-11.96,4.65-17.33l1.56-2.72.4-.63,23.51-40.72h33.66l.05.07-.05.08-33.32,57.78Z"/>
  <path class="cls-1" d="M624.97,513.52h0c0,26.53-21.5,48.03-48.03,48.03h-42.62l16.86-29.24h25.75c10.38,0,18.79-8.41,18.79-18.79h0c0-10.38-8.41-18.79-18.79-18.79h-42.62l16.77-29.24h25.84c26.53,0,48.03,21.5,48.03,48.03Z"/>
</svg>